<svg xmlns="http://www.w3.org/2000/svg" viewBox="0 0 226 75" fill="#FFF" preserveAspectRatio="xMinYMin meet">
      <path d="M0 0V74.8272H23.4116V47.9993H39.4887L45.9522 31.5884H23.4116V16.2301H50.8419L56.9579 0H0Z"/>
      <path d="M64.1241 74.8272H87.1857V0H64.1241V74.8272Z"/>
      <path fill-rule="evenodd" d="M174.545 0.175461L147.812 75H170.179L173.15 64.7638H199.007L202.152 75H225.039L198.307 0.175461H174.545ZM186.074 19.4119L176.992 50.4714H195.162L186.074 19.4119Z"/>
      <path d="M103.436 0V74.8272H126.845V47.9993H143.096L149.56 31.5884H126.845V16.2301H154.278L160.392 0H103.436Z"/>
      <path d="M213.652 0.10099C214.821 0.10099 215.96 0.401361 217.073 1.0074C218.187 1.6161 219.055 2.47996 219.673 3.60964C220.289 4.73931 220.605 5.91153 220.605 7.13955C220.605 8.34632 220.302 9.5132 219.684 10.6269C219.073 11.7486 218.213 12.6152 217.108 13.2345C216.005 13.8512 214.855 14.1622 213.649 14.1622C212.441 14.1622 211.289 13.8538 210.186 13.2345C209.083 12.6152 208.22 11.746 207.61 10.6269C206.994 9.5132 206.689 8.34897 206.689 7.13955C206.689 5.91153 206.999 4.73931 207.623 3.60964C208.241 2.47996 209.112 1.6161 210.228 1.0074C211.341 0.401361 212.486 0.10099 213.652 0.10099ZM213.652 1.26523C212.676 1.26523 211.723 1.52039 210.799 2.02543C209.868 2.5278 209.147 3.25612 208.626 4.1891C208.102 5.13006 207.844 6.11354 207.844 7.13424C207.844 8.14431 208.099 9.11185 208.612 10.0422C209.126 10.9672 209.844 11.6928 210.762 12.2111C211.686 12.7295 212.647 12.9926 213.652 12.9926C214.657 12.9926 215.618 12.7295 216.539 12.2111C217.465 11.6928 218.176 10.9645 218.687 10.0422C219.197 9.11185 219.45 8.14431 219.45 7.13424C219.45 6.11089 219.192 5.13006 218.673 4.1891C218.152 3.25346 217.426 2.5278 216.502 2.02543C215.573 1.52039 214.621 1.26523 213.652 1.26523ZM210.599 11.015V3.45547H213.17C214.052 3.45547 214.689 3.51927 215.084 3.66281C215.476 3.80103 215.792 4.04556 216.029 4.3911C216.26 4.74197 216.373 5.11144 216.373 5.49952C216.373 6.05239 216.179 6.53352 215.789 6.94552C215.4 7.35752 214.876 7.58344 214.231 7.6366C214.497 7.74824 214.71 7.88115 214.868 8.03532C215.168 8.33302 215.539 8.83275 215.979 9.53447L216.892 11.0124H215.413L214.747 9.82155C214.226 8.88591 213.81 8.30113 213.484 8.0619C213.268 7.89179 212.942 7.80141 212.518 7.80141H211.81V11.0124H210.599V11.015ZM211.81 6.76477H213.273C213.978 6.76477 214.452 6.65578 214.707 6.4458C214.965 6.23847 215.092 5.95672 215.092 5.61118C215.092 5.38524 215.028 5.18587 214.907 5.00778C214.781 4.83235 214.613 4.6968 214.397 4.6144C214.178 4.52403 213.776 4.48149 213.184 4.48149H211.813V6.76477"/>
</svg>